<svg width="275" height="368" viewBox="0 0 275 368" fill="none" xmlns="http://www.w3.org/2000/svg">
<path d="M142.277 248.968V240.241H145.328C145.936 240.241 146.438 240.346 146.833 240.556C147.228 240.763 147.522 241.043 147.715 241.395C147.908 241.745 148.004 242.133 148.004 242.559C148.004 242.934 147.938 243.243 147.804 243.488C147.674 243.732 147.5 243.925 147.284 244.067C147.071 244.209 146.84 244.314 146.59 244.383V244.468C146.857 244.485 147.125 244.579 147.395 244.749C147.665 244.919 147.891 245.164 148.073 245.482C148.254 245.8 148.345 246.189 148.345 246.65C148.345 247.087 148.246 247.481 148.047 247.83C147.848 248.179 147.534 248.456 147.105 248.661C146.676 248.866 146.118 248.968 145.431 248.968H142.277ZM143.334 248.03H145.431C146.121 248.03 146.611 247.897 146.901 247.63C147.193 247.36 147.34 247.033 147.34 246.65C147.34 246.354 147.264 246.081 147.114 245.831C146.963 245.579 146.749 245.377 146.47 245.226C146.192 245.073 145.862 244.996 145.482 244.996H143.334V248.03ZM143.334 244.076H145.294C145.612 244.076 145.899 244.013 146.155 243.888C146.414 243.763 146.618 243.587 146.769 243.36C146.922 243.133 146.999 242.866 146.999 242.559C146.999 242.175 146.865 241.85 146.598 241.583C146.331 241.313 145.908 241.178 145.328 241.178H143.334V244.076ZM152.69 249.104C152.059 249.104 151.515 248.965 151.058 248.687C150.603 248.405 150.252 248.013 150.005 247.51C149.761 247.005 149.639 246.417 149.639 245.746C149.639 245.076 149.761 244.485 150.005 243.973C150.252 243.459 150.596 243.059 151.036 242.772C151.48 242.482 151.997 242.337 152.588 242.337C152.928 242.337 153.265 242.394 153.598 242.508C153.93 242.621 154.232 242.806 154.505 243.062C154.778 243.314 154.995 243.65 155.157 244.067C155.319 244.485 155.4 244.999 155.4 245.61V246.036H150.355V245.167H154.377C154.377 244.797 154.303 244.468 154.156 244.178C154.011 243.888 153.803 243.66 153.534 243.492C153.267 243.324 152.951 243.241 152.588 243.241C152.187 243.241 151.84 243.34 151.548 243.539C151.258 243.735 151.035 243.991 150.879 244.306C150.723 244.621 150.644 244.959 150.644 245.32V245.9C150.644 246.394 150.73 246.813 150.9 247.157C151.073 247.498 151.313 247.758 151.62 247.937C151.927 248.113 152.284 248.201 152.69 248.201C152.954 248.201 153.193 248.164 153.406 248.09C153.622 248.013 153.808 247.9 153.964 247.749C154.12 247.596 154.241 247.405 154.326 247.178L155.298 247.451C155.196 247.78 155.024 248.07 154.782 248.32C154.541 248.567 154.242 248.76 153.887 248.9C153.532 249.036 153.133 249.104 152.69 249.104ZM159.402 249.104C158.856 249.104 158.375 248.966 157.957 248.691C157.539 248.412 157.213 248.02 156.977 247.515C156.741 247.006 156.623 246.405 156.623 245.712C156.623 245.025 156.741 244.428 156.977 243.922C157.213 243.417 157.541 243.026 157.961 242.75C158.382 242.475 158.867 242.337 159.419 242.337C159.845 242.337 160.181 242.408 160.428 242.55C160.678 242.689 160.869 242.848 161 243.027C161.133 243.204 161.237 243.348 161.311 243.462H161.396V240.241H162.402V248.968H161.43V247.962H161.311C161.237 248.081 161.132 248.232 160.995 248.414C160.859 248.593 160.664 248.753 160.411 248.895C160.159 249.035 159.822 249.104 159.402 249.104ZM159.538 248.201C159.941 248.201 160.282 248.096 160.561 247.885C160.839 247.672 161.051 247.378 161.196 247.003C161.34 246.625 161.413 246.189 161.413 245.695C161.413 245.206 161.342 244.779 161.2 244.412C161.058 244.043 160.848 243.756 160.569 243.552C160.291 243.344 159.947 243.241 159.538 243.241C159.112 243.241 158.757 243.35 158.473 243.569C158.191 243.785 157.98 244.079 157.838 244.451C157.698 244.82 157.629 245.235 157.629 245.695C157.629 246.161 157.7 246.584 157.842 246.965C157.987 247.343 158.2 247.644 158.481 247.868C158.765 248.09 159.117 248.201 159.538 248.201ZM164.383 248.968V242.422H165.355V243.411H165.423C165.542 243.087 165.758 242.824 166.071 242.623C166.383 242.421 166.735 242.32 167.127 242.32C167.201 242.32 167.294 242.321 167.404 242.324C167.515 242.327 167.599 242.331 167.656 242.337V243.36C167.622 243.351 167.544 243.339 167.421 243.321C167.302 243.302 167.176 243.292 167.042 243.292C166.724 243.292 166.44 243.358 166.19 243.492C165.943 243.623 165.747 243.804 165.602 244.037C165.46 244.267 165.389 244.53 165.389 244.826V248.968H164.383ZM171.308 249.104C170.717 249.104 170.198 248.964 169.752 248.682C169.309 248.401 168.963 248.008 168.713 247.502C168.465 246.996 168.342 246.405 168.342 245.729C168.342 245.047 168.465 244.452 168.713 243.944C168.963 243.435 169.309 243.04 169.752 242.759C170.198 242.478 170.717 242.337 171.308 242.337C171.899 242.337 172.416 242.478 172.859 242.759C173.305 243.04 173.652 243.435 173.899 243.944C174.149 244.452 174.274 245.047 174.274 245.729C174.274 246.405 174.149 246.996 173.899 247.502C173.652 248.008 173.305 248.401 172.859 248.682C172.416 248.964 171.899 249.104 171.308 249.104ZM171.308 248.201C171.757 248.201 172.126 248.086 172.416 247.856C172.705 247.625 172.92 247.323 173.059 246.948C173.198 246.573 173.268 246.167 173.268 245.729C173.268 245.292 173.198 244.884 173.059 244.506C172.92 244.128 172.705 243.823 172.416 243.59C172.126 243.357 171.757 243.241 171.308 243.241C170.859 243.241 170.49 243.357 170.2 243.59C169.91 243.823 169.696 244.128 169.556 244.506C169.417 244.884 169.348 245.292 169.348 245.729C169.348 246.167 169.417 246.573 169.556 246.948C169.696 247.323 169.91 247.625 170.2 247.856C170.49 248.086 170.859 248.201 171.308 248.201ZM178.468 249.104C177.877 249.104 177.359 248.964 176.913 248.682C176.469 248.401 176.123 248.008 175.873 247.502C175.626 246.996 175.502 246.405 175.502 245.729C175.502 245.047 175.626 244.452 175.873 243.944C176.123 243.435 176.469 243.04 176.913 242.759C177.359 242.478 177.877 242.337 178.468 242.337C179.059 242.337 179.576 242.478 180.019 242.759C180.465 243.04 180.812 243.435 181.059 243.944C181.309 244.452 181.434 245.047 181.434 245.729C181.434 246.405 181.309 246.996 181.059 247.502C180.812 248.008 180.465 248.401 180.019 248.682C179.576 248.964 179.059 249.104 178.468 249.104ZM178.468 248.201C178.917 248.201 179.286 248.086 179.576 247.856C179.866 247.625 180.08 247.323 180.219 246.948C180.359 246.573 180.428 246.167 180.428 245.729C180.428 245.292 180.359 244.884 180.219 244.506C180.08 244.128 179.866 243.823 179.576 243.59C179.286 243.357 178.917 243.241 178.468 243.241C178.019 243.241 177.65 243.357 177.36 243.59C177.07 243.823 176.856 244.128 176.716 244.506C176.577 244.884 176.508 245.292 176.508 245.729C176.508 246.167 176.577 246.573 176.716 246.948C176.856 247.323 177.07 247.625 177.36 247.856C177.65 248.086 178.019 248.201 178.468 248.201ZM182.969 248.968V242.422H183.941V243.445H184.026C184.162 243.096 184.382 242.824 184.686 242.631C184.99 242.435 185.355 242.337 185.781 242.337C186.213 242.337 186.573 242.435 186.86 242.631C187.149 242.824 187.375 243.096 187.537 243.445H187.605C187.773 243.107 188.024 242.839 188.36 242.64C188.695 242.438 189.097 242.337 189.566 242.337C190.151 242.337 190.629 242.52 191.002 242.887C191.374 243.25 191.56 243.817 191.56 244.587V248.968H190.554V244.587C190.554 244.104 190.422 243.759 190.158 243.552C189.894 243.344 189.583 243.241 189.225 243.241C188.764 243.241 188.408 243.38 188.155 243.658C187.902 243.934 187.776 244.283 187.776 244.706V248.968H186.753V244.485C186.753 244.113 186.632 243.813 186.391 243.586C186.149 243.356 185.838 243.241 185.458 243.241C185.196 243.241 184.952 243.31 184.725 243.449C184.5 243.589 184.318 243.782 184.179 244.029C184.043 244.273 183.975 244.556 183.975 244.877V248.968H182.969Z" fill="black"/>
<path d="M33.7004 158.243V149.516H36.7515C37.3595 149.516 37.8609 149.621 38.2558 149.831C38.6507 150.039 38.9447 150.318 39.1379 150.671C39.3311 151.02 39.4277 151.408 39.4277 151.834C39.4277 152.209 39.3609 152.519 39.2274 152.763C39.0967 153.007 38.9234 153.201 38.7075 153.343C38.4944 153.485 38.2629 153.59 38.0129 153.658V153.743C38.2799 153.76 38.5484 153.854 38.8183 154.024C39.0882 154.195 39.314 154.439 39.4958 154.757C39.6777 155.076 39.7686 155.465 39.7686 155.925C39.7686 156.362 39.6691 156.756 39.4703 157.105C39.2714 157.455 38.9575 157.732 38.5285 157.936C38.0995 158.141 37.5413 158.243 36.8538 158.243H33.7004ZM34.7572 157.306H36.8538C37.5441 157.306 38.0342 157.172 38.324 156.905C38.6166 156.635 38.7629 156.309 38.7629 155.925C38.7629 155.63 38.6876 155.357 38.537 155.107C38.3865 154.854 38.172 154.652 37.8936 154.502C37.6152 154.348 37.2856 154.272 36.9049 154.272H34.7572V157.306ZM34.7572 153.351H36.7174C37.0356 153.351 37.3225 153.289 37.5782 153.164C37.8367 153.039 38.0413 152.862 38.1919 152.635C38.3453 152.408 38.422 152.141 38.422 151.834C38.422 151.451 38.2885 151.125 38.0214 150.858C37.7544 150.588 37.3311 150.453 36.7515 150.453H34.7572V153.351ZM43.2948 158.397C42.8801 158.397 42.5037 158.318 42.1656 158.162C41.8275 158.003 41.559 157.774 41.3602 157.476C41.1613 157.175 41.0619 156.811 41.0619 156.385C41.0619 156.01 41.1358 155.706 41.2835 155.473C41.4312 155.237 41.6287 155.053 41.8758 154.919C42.123 154.786 42.3957 154.686 42.694 154.621C42.9951 154.553 43.2977 154.499 43.6017 154.459C43.9994 154.408 44.3218 154.37 44.569 154.344C44.819 154.316 45.0008 154.269 45.1144 154.203C45.2309 154.138 45.2892 154.024 45.2892 153.862V153.828C45.2892 153.408 45.1741 153.081 44.944 152.848C44.7167 152.615 44.3715 152.499 43.9085 152.499C43.4284 152.499 43.0519 152.604 42.7792 152.814C42.5065 153.024 42.3147 153.249 42.2039 153.487L41.2494 153.147C41.4198 152.749 41.6471 152.439 41.9312 152.218C42.2181 151.993 42.5306 151.837 42.8687 151.749C43.2096 151.658 43.5448 151.612 43.8744 151.612C44.0846 151.612 44.3261 151.638 44.5988 151.689C44.8744 151.737 45.14 151.838 45.3957 151.992C45.6542 152.145 45.8687 152.377 46.0392 152.686C46.2096 152.996 46.2948 153.411 46.2948 153.931V158.243H45.2892V157.357H45.238C45.1698 157.499 45.0562 157.651 44.8971 157.813C44.738 157.975 44.5264 158.112 44.2622 158.226C43.998 158.34 43.6755 158.397 43.2948 158.397ZM43.4483 157.493C43.846 157.493 44.1812 157.415 44.4539 157.259C44.7295 157.103 44.9369 156.901 45.0761 156.654C45.2181 156.407 45.2892 156.147 45.2892 155.874V154.953C45.2465 155.005 45.1528 155.051 45.0079 155.094C44.8659 155.134 44.7011 155.169 44.5136 155.201C44.3289 155.229 44.1485 155.255 43.9724 155.277C43.7991 155.297 43.6585 155.314 43.5505 155.328C43.2892 155.362 43.0448 155.418 42.8176 155.495C42.5931 155.568 42.4113 155.681 42.2721 155.831C42.1358 155.979 42.0676 156.181 42.0676 156.436C42.0676 156.786 42.1968 157.05 42.4554 157.229C42.7167 157.405 43.0477 157.493 43.4483 157.493ZM50.977 151.698V152.55H47.585V151.698H50.977ZM48.5736 150.13H49.5793V156.368C49.5793 156.652 49.6205 156.865 49.7029 157.007C49.7881 157.147 49.8961 157.24 50.0267 157.289C50.1603 157.334 50.3009 157.357 50.4486 157.357C50.5594 157.357 50.6503 157.351 50.7213 157.34C50.7924 157.326 50.8492 157.314 50.8918 157.306L51.0963 158.209C51.0282 158.235 50.933 158.26 50.8108 158.286C50.6887 158.314 50.5338 158.328 50.3463 158.328C50.0622 158.328 49.7838 158.267 49.5111 158.145C49.2412 158.023 49.0168 157.837 48.8378 157.587C48.6617 157.337 48.5736 157.022 48.5736 156.641V150.13ZM53.6361 154.306V158.243H52.6304V149.516H53.6361V152.72H53.7213C53.8747 152.382 54.1049 152.114 54.4117 151.915C54.7213 151.713 55.1333 151.612 55.6475 151.612C56.0935 151.612 56.4841 151.702 56.8193 151.881C57.1546 152.057 57.4145 152.328 57.5992 152.695C57.7867 153.059 57.8804 153.522 57.8804 154.084V158.243H56.8747V154.152C56.8747 153.632 56.7398 153.23 56.4699 152.946C56.2029 152.659 55.8321 152.516 55.3577 152.516C55.0282 152.516 54.7327 152.585 54.4713 152.725C54.2128 152.864 54.0083 153.067 53.8577 153.334C53.71 153.601 53.6361 153.925 53.6361 154.306Z" fill="black"/>
<path d="M34.3059 33.0628H35.3628V38.8412C35.3628 39.4378 35.2221 39.9704 34.9409 40.4392C34.6625 40.9051 34.269 41.273 33.7605 41.5429C33.252 41.8099 32.6554 41.9434 31.9707 41.9434C31.2861 41.9434 30.6895 41.8099 30.1809 41.5429C29.6724 41.273 29.2775 40.9051 28.9963 40.4392C28.7179 39.9704 28.5787 39.4378 28.5787 38.8412V33.0628H29.6355V38.7559C29.6355 39.1821 29.7292 39.5613 29.9167 39.8937C30.1042 40.2233 30.3713 40.4832 30.7179 40.6736C31.0673 40.8611 31.4849 40.9548 31.9707 40.9548C32.4565 40.9548 32.8741 40.8611 33.2236 40.6736C33.573 40.4832 33.84 40.2233 34.0247 39.8937C34.2122 39.5613 34.3059 39.1821 34.3059 38.7559V33.0628ZM37.3368 44.2446V35.2446H38.3084V36.2844H38.4277C38.5016 36.1707 38.6039 36.0258 38.7346 35.8497C38.8681 35.6707 39.0584 35.5116 39.3056 35.3724C39.5556 35.2304 39.8937 35.1594 40.3198 35.1594C40.8709 35.1594 41.3567 35.2971 41.7772 35.5727C42.1976 35.8483 42.5258 36.2389 42.7616 36.7446C42.9973 37.2503 43.1152 37.8469 43.1152 38.5344C43.1152 39.2275 42.9973 39.8284 42.7616 40.3369C42.5258 40.8426 42.1991 41.2346 41.7814 41.5131C41.3638 41.7886 40.8823 41.9264 40.3368 41.9264C39.9164 41.9264 39.5797 41.8568 39.3269 41.7176C39.0741 41.5756 38.8795 41.415 38.7431 41.2361C38.6067 41.0542 38.5016 40.9037 38.4277 40.7844H38.3425V44.2446H37.3368ZM38.3255 38.5173C38.3255 39.0116 38.3979 39.4477 38.5428 39.8256C38.6877 40.2006 38.8993 40.4946 39.1777 40.7077C39.4562 40.9179 39.7971 41.023 40.2005 41.023C40.6209 41.023 40.9718 40.9122 41.253 40.6906C41.5371 40.4662 41.7502 40.165 41.8922 39.7872C42.0371 39.4065 42.1096 38.9832 42.1096 38.5173C42.1096 38.0571 42.0385 37.6423 41.8965 37.273C41.7573 36.9008 41.5456 36.6068 41.2616 36.3909C40.9803 36.1721 40.6266 36.0628 40.2005 36.0628C39.7914 36.0628 39.4476 36.1665 39.1692 36.3738C38.8908 36.5784 38.6806 36.8653 38.5385 37.2346C38.3965 37.6011 38.3255 38.0287 38.3255 38.5173ZM44.6493 44.2446V35.2446H45.6209V36.2844H45.7402C45.8141 36.1707 45.9164 36.0258 46.0471 35.8497C46.1806 35.6707 46.3709 35.5116 46.6181 35.3724C46.8681 35.2304 47.2062 35.1594 47.6323 35.1594C48.1834 35.1594 48.6692 35.2971 49.0897 35.5727C49.5101 35.8483 49.8383 36.2389 50.0741 36.7446C50.3098 37.2503 50.4277 37.8469 50.4277 38.5344C50.4277 39.2275 50.3098 39.8284 50.0741 40.3369C49.8383 40.8426 49.5116 41.2346 49.0939 41.5131C48.6763 41.7886 48.1948 41.9264 47.6493 41.9264C47.2289 41.9264 46.8922 41.8568 46.6394 41.7176C46.3866 41.5756 46.192 41.415 46.0556 41.2361C45.9192 41.0542 45.8141 40.9037 45.7402 40.7844H45.655V44.2446H44.6493ZM45.638 38.5173C45.638 39.0116 45.7104 39.4477 45.8553 39.8256C46.0002 40.2006 46.2118 40.4946 46.4902 40.7077C46.7687 40.9179 47.1096 41.023 47.513 41.023C47.9334 41.023 48.2843 40.9122 48.5655 40.6906C48.8496 40.4662 49.0627 40.165 49.2047 39.7872C49.3496 39.4065 49.4221 38.9832 49.4221 38.5173C49.4221 38.0571 49.351 37.6423 49.209 37.273C49.0698 36.9008 48.8581 36.6068 48.5741 36.3909C48.2928 36.1721 47.9391 36.0628 47.513 36.0628C47.1039 36.0628 46.7601 36.1665 46.4817 36.3738C46.2033 36.5784 45.9931 36.8653 45.851 37.2346C45.709 37.6011 45.638 38.0287 45.638 38.5173ZM54.7062 41.9264C54.0755 41.9264 53.5314 41.7872 53.0741 41.5088C52.6195 41.2275 52.2687 40.8355 52.0215 40.3327C51.7772 39.827 51.655 39.2389 51.655 38.5684C51.655 37.898 51.7772 37.3071 52.0215 36.7957C52.2687 36.2815 52.6124 35.8809 53.0527 35.594C53.4959 35.3042 54.013 35.1594 54.6039 35.1594C54.9448 35.1594 55.2814 35.2162 55.6138 35.3298C55.9462 35.4434 56.2488 35.6281 56.5215 35.8838C56.7942 36.1366 57.0116 36.4719 57.1735 36.8895C57.3354 37.3071 57.4164 37.8213 57.4164 38.4321V38.8582H52.3709V37.9889H56.3937C56.3937 37.6196 56.3198 37.29 56.1721 37.0003C56.0272 36.7105 55.8198 36.4818 55.5499 36.3142C55.2829 36.1466 54.9675 36.0628 54.6039 36.0628C54.2033 36.0628 53.8567 36.1622 53.5641 36.3611C53.2743 36.5571 53.0513 36.8128 52.8951 37.1281C52.7388 37.4434 52.6607 37.7815 52.6607 38.1423V38.7219C52.6607 39.2162 52.7459 39.6352 52.9164 39.979C53.0897 40.3199 53.3297 40.5798 53.6366 40.7588C53.9434 40.9349 54.2999 41.023 54.7062 41.023C54.9704 41.023 55.209 40.9861 55.4221 40.9122C55.638 40.8355 55.8241 40.7219 55.9803 40.5713C56.1366 40.4179 56.2573 40.2275 56.3425 40.0003L57.3141 40.273C57.2118 40.6025 57.04 40.8923 56.7985 41.1423C56.557 41.3895 56.2587 41.5827 55.9036 41.7219C55.5485 41.8582 55.1493 41.9264 54.7062 41.9264ZM58.9462 41.79V35.2446H59.9178V36.2332H59.986C60.1053 35.9094 60.3212 35.6466 60.6337 35.4449C60.9462 35.2432 61.2985 35.1423 61.6905 35.1423C61.7644 35.1423 61.8567 35.1437 61.9675 35.1466C62.0783 35.1494 62.1621 35.1537 62.2189 35.1594V36.1821C62.1848 36.1736 62.1067 36.1608 61.9846 36.1437C61.8652 36.1238 61.7388 36.1139 61.6053 36.1139C61.2871 36.1139 61.003 36.1807 60.753 36.3142C60.5059 36.4449 60.3098 36.6267 60.165 36.8596C60.0229 37.0898 59.9519 37.3525 59.9519 37.648V41.79H58.9462ZM66.9224 41.79V33.0628H67.9792V40.8525H72.0361V41.79H66.9224ZM76.2804 41.9264C75.6497 41.9264 75.1057 41.7872 74.6483 41.5088C74.1937 41.2275 73.8429 40.8355 73.5957 40.3327C73.3514 39.827 73.2292 39.2389 73.2292 38.5684C73.2292 37.898 73.3514 37.3071 73.5957 36.7957C73.8429 36.2815 74.1866 35.8809 74.627 35.594C75.0701 35.3042 75.5872 35.1594 76.1781 35.1594C76.519 35.1594 76.8557 35.2162 77.188 35.3298C77.5204 35.4434 77.823 35.6281 78.0957 35.8838C78.3684 36.1366 78.5858 36.4719 78.7477 36.8895C78.9096 37.3071 78.9906 37.8213 78.9906 38.4321V38.8582H73.9451V37.9889H77.9679C77.9679 37.6196 77.894 37.29 77.7463 37.0003C77.6014 36.7105 77.394 36.4818 77.1241 36.3142C76.8571 36.1466 76.5417 36.0628 76.1781 36.0628C75.7775 36.0628 75.4309 36.1622 75.1383 36.3611C74.8486 36.5571 74.6255 36.8128 74.4693 37.1281C74.313 37.4434 74.2349 37.7815 74.2349 38.1423V38.7219C74.2349 39.2162 74.3201 39.6352 74.4906 39.979C74.6639 40.3199 74.904 40.5798 75.2108 40.7588C75.5176 40.9349 75.8741 41.023 76.2804 41.023C76.5446 41.023 76.7832 40.9861 76.9963 40.9122C77.2122 40.8355 77.3983 40.7219 77.5545 40.5713C77.7108 40.4179 77.8315 40.2275 77.9167 40.0003L78.8883 40.273C78.7861 40.6025 78.6142 40.8923 78.3727 41.1423C78.1312 41.3895 77.8329 41.5827 77.4778 41.7219C77.1227 41.8582 76.7236 41.9264 76.2804 41.9264ZM85.6735 35.2446L83.253 41.79H82.2303L79.8098 35.2446H80.9008L82.7076 40.4605H82.7758L84.5826 35.2446H85.6735ZM89.5108 41.9264C88.8802 41.9264 88.3361 41.7872 87.8787 41.5088C87.4242 41.2275 87.0733 40.8355 86.8262 40.3327C86.5819 39.827 86.4597 39.2389 86.4597 38.5684C86.4597 37.898 86.5819 37.3071 86.8262 36.7957C87.0733 36.2815 87.4171 35.8809 87.8574 35.594C88.3006 35.3042 88.8177 35.1594 89.4086 35.1594C89.7495 35.1594 90.0861 35.2162 90.4185 35.3298C90.7509 35.4434 91.0535 35.6281 91.3262 35.8838C91.5989 36.1366 91.8162 36.4719 91.9782 36.8895C92.1401 37.3071 92.2211 37.8213 92.2211 38.4321V38.8582H87.1756V37.9889H91.1983C91.1983 37.6196 91.1245 37.29 90.9768 37.0003C90.8319 36.7105 90.6245 36.4818 90.3546 36.3142C90.0875 36.1466 89.7722 36.0628 89.4086 36.0628C89.008 36.0628 88.6614 36.1622 88.3688 36.3611C88.079 36.5571 87.856 36.8128 87.6998 37.1281C87.5435 37.4434 87.4654 37.7815 87.4654 38.1423V38.7219C87.4654 39.2162 87.5506 39.6352 87.7211 39.979C87.8944 40.3199 88.1344 40.5798 88.4412 40.7588C88.7481 40.9349 89.1046 41.023 89.5108 41.023C89.775 41.023 90.0137 40.9861 90.2268 40.9122C90.4427 40.8355 90.6287 40.7219 90.785 40.5713C90.9412 40.4179 91.062 40.2275 91.1472 40.0003L92.1188 40.273C92.0165 40.6025 91.8446 40.8923 91.6032 41.1423C91.3617 41.3895 91.0634 41.5827 90.7083 41.7219C90.3532 41.8582 89.954 41.9264 89.5108 41.9264ZM94.7566 33.0628V41.79H93.7509V33.0628H94.7566Z" fill="black"/>
<path d="M27.5219 44.1764H95.677V44.9946H27.5219V44.1764Z" fill="black"/>
<path d="M249.493 91.2549V311.05M247.899 91.2556V311.051M246.304 91.2549V311.051" stroke="black" stroke-width="0.3"/>
<path d="M38.6594 285.539L56.5942 306.145L38.6594 326.751" stroke="black" stroke-width="0.3"/>
<path d="M37.4637 287.011L54.2029 306.145L37.4637 325.279" stroke="black" stroke-width="0.3"/>
<path d="M275 88.3105H86.087M275 366H39.058V325.769H1.59424V250.214M86.087 88.3105H1.59424V250.214M86.087 88.3105V162.491M1.59424 250.214H65.4501L86.087 232.905V207.854M101.232 313.013H249.729" stroke="#79716E" stroke-width="3"/>
<path d="M180.942 314.976V364.037M169.783 314.976V364.037M156.232 314.976V364.037M142.681 314.976V364.037M129.928 314.976V364.037M116.377 314.976V364.037M102.826 314.976V364.037" stroke="black" stroke-width="0.3"/>
<path d="M100.159 340.488C100.159 341.961 101.353 343.155 102.826 343.155C104.299 343.155 105.493 341.961 105.493 340.488C105.493 339.016 104.299 337.822 102.826 337.822C101.353 337.822 100.159 339.016 100.159 340.488ZM180.942 340.488L175.942 337.602V343.375L180.942 340.488ZM102.826 340.988H176.442V339.988H102.826V340.988Z" fill="#79716E"/>
<path d="M85.5085 162.492C65.1367 164.268 50.3874 179.985 48.4 208.173H85.5085" stroke="#79716E" stroke-width="0.3"/>
<rect x="0.149814" y="-0.150281" width="20.0115" height="28.3" transform="matrix(-0.00123591 -0.999999 0.999998 -0.00187286 4.72533 112.443)" stroke="black" stroke-width="0.3"/>
<path d="M9.98106 117.173C9.97576 112.88 10.9544 108.993 12.5385 106.181C14.1234 103.368 16.3078 101.639 18.7119 101.634C21.116 101.63 23.3046 103.35 24.8965 106.158C26.4875 108.964 27.4757 112.847 27.481 117.14C27.4864 121.433 26.5077 125.319 24.9236 128.131C23.3387 130.945 21.1543 132.674 18.7502 132.678C16.3462 132.683 14.1575 130.962 12.5656 128.154C10.9746 125.348 9.98637 121.466 9.98106 117.173Z" fill="#FBF6EB" stroke="black" stroke-width="0.1"/>
<rect x="131.154" y="219.45" width="127.8" height="70.074" transform="rotate(-90 131.154 219.45)" stroke="black" stroke-width="0.3"/>
<path d="M131.004 152.936H201.378M131.004 133.328H201.378" stroke="black" stroke-width="0.3"/>
<rect x="168.948" y="121.514" width="22.1214" height="24.8016" transform="rotate(-90 168.948 121.514)" stroke="black" stroke-width="0.1"/>
<rect x="138.633" y="121.514" width="22.1214" height="23.7189" transform="rotate(-90 138.633 121.514)" stroke="black" stroke-width="0.1"/>
<rect x="95.4256" y="121.414" width="29.7643" height="32.1803" transform="rotate(-90 95.4256 121.414)" stroke="black" stroke-width="0.3"/>
<rect x="204.776" y="121.414" width="29.7643" height="31.0976" transform="rotate(-90 204.776 121.414)" stroke="black" stroke-width="0.3"/>
<rect x="128.989" y="274.65" width="84.1488" height="31.0714" stroke="black" stroke-width="0.3"/>
<path d="M27.0669 213.064H85.5315" stroke="black" stroke-width="0.3"/>
<rect x="36.961" y="118.8" width="27.15" height="44.0898" transform="rotate(-90 36.961 118.8)" stroke="black" stroke-width="0.3"/>
<path d="M59.006 95.4717C65.8633 95.4717 71.4067 100.139 71.4067 105.879C71.4067 111.619 65.8633 116.286 59.006 116.286C52.1487 116.286 46.6052 111.619 46.6052 105.879C46.6052 100.139 52.1487 95.4717 59.006 95.4717Z" stroke="black" stroke-width="0.1"/>
</svg>
