<svg width="902" height="344" viewBox="0 0 902 344" fill="none" xmlns="http://www.w3.org/2000/svg">
<path d="M219.853 53.2314V133.078" stroke="#79716E"/>
<path d="M221.825 186.309V126.178H223.796V186.309H221.825Z" stroke="#79716E" stroke-width="0.3"/>
<path d="M810.324 285.871V195.181H812.296V285.871H810.324Z" stroke="#79716E" stroke-width="0.3"/>
<path d="M429.82 175.466L444.607 189.266L429.82 203.067" stroke="black" stroke-width="0.3"/>
<path d="M428.835 176.451L442.635 189.266L428.835 202.081" stroke="black" stroke-width="0.3"/>
<path d="M295.757 278.354L318.183 254.327L340.609 278.354" stroke="black" stroke-width="0.3"/>
<path d="M297.359 279.956L318.183 257.53L339.007 279.956" stroke="black" stroke-width="0.3"/>
<path d="M899.043 51.2598V330.23" stroke="#79716E"/>
<path d="M223.796 293.756H2L2 116.319H17.7722V109.419M223.796 293.756V280.942M223.796 293.756H232.668M17.7722 56.188V51.2592H272.099M901.014 51.2592H806.381M272.099 51.2592V220.81M272.099 51.2592H385.461M272.099 220.81H285.899M272.099 220.81H223.796V240.525M280.97 293.756H294.771V277.984V332.201L806.381 332.201M902 332.201H806.381M363.774 276.999H547.126M385.461 51.2592V174.479M385.461 51.2592L547.126 51.2592M385.461 174.479H429.82M385.461 174.479V220.81L429.82 220.81L328.287 220.81M547.126 51.2592V112.376H502.767M547.126 51.2592H806.381M806.381 332.201V320.372M806.381 51.2592V228.696" stroke="#79716E" stroke-width="3"/>
<path d="M19.7437 56.1885V109.42M17.7722 56.1887V109.42M15.8007 56.1885V109.42" stroke="#79716E" stroke-width="0.3"/>
<path d="M222.811 240.525C198.999 242.135 181.76 256.38 179.437 281.927H222.811" stroke="#79716E" stroke-width="0.3"/>
<path d="M329.273 220.811C327.586 197 312.663 179.76 285.899 177.438V220.811" stroke="#79716E" stroke-width="0.3"/>
<path d="M232.668 295.728H281.956C280.04 268.67 263.082 249.08 232.668 246.44V295.728Z" stroke="#79716E" stroke-width="0.3"/>
<path d="M546.14 279.956V329.244M532.34 279.956V329.244M515.582 279.956V329.244M498.824 279.956V329.244M483.052 279.956V329.244M466.294 279.956V329.244M449.536 279.956V329.244" stroke="#79716E" stroke-width="0.3"/>
<path d="M548.807 305.586C548.807 304.113 547.613 302.919 546.14 302.919C544.667 302.919 543.473 304.113 543.473 305.586C543.473 307.059 544.667 308.253 546.14 308.253C547.613 308.253 548.807 307.059 548.807 305.586ZM445.592 305.586L450.592 308.473V302.699L445.592 305.586ZM546.14 305.086H450.092V306.086H546.14V305.086Z" fill="#79716E"/>
<path d="M144.402 189.429V180.701H147.453C148.061 180.701 148.562 180.807 148.957 181.017C149.352 181.224 149.646 181.504 149.839 181.856C150.032 182.206 150.129 182.593 150.129 183.02C150.129 183.395 150.062 183.704 149.929 183.949C149.798 184.193 149.625 184.386 149.409 184.528C149.196 184.67 148.964 184.775 148.714 184.843V184.929C148.981 184.946 149.25 185.04 149.52 185.21C149.79 185.38 150.015 185.625 150.197 185.943C150.379 186.261 150.47 186.65 150.47 187.111C150.47 187.548 150.371 187.941 150.172 188.291C149.973 188.64 149.659 188.917 149.23 189.122C148.801 189.326 148.243 189.429 147.555 189.429H144.402ZM145.459 188.491H147.555C148.246 188.491 148.736 188.358 149.025 188.091C149.318 187.821 149.464 187.494 149.464 187.111C149.464 186.815 149.389 186.542 149.238 186.292C149.088 186.04 148.873 185.838 148.595 185.687C148.317 185.534 147.987 185.457 147.606 185.457H145.459V188.491ZM145.459 184.537H147.419C147.737 184.537 148.024 184.474 148.28 184.349C148.538 184.224 148.743 184.048 148.893 183.821C149.047 183.593 149.123 183.326 149.123 183.02C149.123 182.636 148.99 182.311 148.723 182.044C148.456 181.774 148.032 181.639 147.453 181.639H145.459V184.537ZM154.814 189.565C154.184 189.565 153.64 189.426 153.182 189.147C152.728 188.866 152.377 188.474 152.13 187.971C151.885 187.466 151.763 186.878 151.763 186.207C151.763 185.537 151.885 184.946 152.13 184.434C152.377 183.92 152.721 183.52 153.161 183.233C153.604 182.943 154.121 182.798 154.712 182.798C155.053 182.798 155.39 182.855 155.722 182.968C156.054 183.082 156.357 183.267 156.63 183.522C156.903 183.775 157.12 184.111 157.282 184.528C157.444 184.946 157.525 185.46 157.525 186.071V186.497H152.479V185.628H156.502C156.502 185.258 156.428 184.929 156.28 184.639C156.135 184.349 155.928 184.12 155.658 183.953C155.391 183.785 155.076 183.701 154.712 183.701C154.312 183.701 153.965 183.801 153.672 184C153.383 184.196 153.16 184.451 153.003 184.767C152.847 185.082 152.769 185.42 152.769 185.781V186.361C152.769 186.855 152.854 187.274 153.025 187.618C153.198 187.959 153.438 188.218 153.745 188.397C154.052 188.574 154.408 188.662 154.814 188.662C155.079 188.662 155.317 188.625 155.53 188.551C155.746 188.474 155.932 188.361 156.089 188.21C156.245 188.057 156.366 187.866 156.451 187.639L157.422 187.912C157.32 188.241 157.148 188.531 156.907 188.781C156.665 189.028 156.367 189.221 156.012 189.361C155.657 189.497 155.258 189.565 154.814 189.565ZM161.526 189.565C160.981 189.565 160.499 189.427 160.081 189.152C159.664 188.873 159.337 188.481 159.101 187.976C158.866 187.467 158.748 186.866 158.748 186.173C158.748 185.486 158.866 184.889 159.101 184.383C159.337 183.878 159.665 183.487 160.086 183.211C160.506 182.936 160.992 182.798 161.543 182.798C161.969 182.798 162.306 182.869 162.553 183.011C162.803 183.15 162.993 183.309 163.124 183.488C163.258 183.665 163.361 183.809 163.435 183.923H163.52V180.701H164.526V189.429H163.554V188.423H163.435C163.361 188.542 163.256 188.693 163.12 188.875C162.983 189.054 162.789 189.214 162.536 189.356C162.283 189.495 161.947 189.565 161.526 189.565ZM161.662 188.662C162.066 188.662 162.407 188.557 162.685 188.346C162.964 188.133 163.175 187.839 163.32 187.464C163.465 187.086 163.537 186.65 163.537 186.156C163.537 185.667 163.466 185.24 163.324 184.873C163.182 184.504 162.972 184.217 162.694 184.013C162.415 183.805 162.072 183.701 161.662 183.701C161.236 183.701 160.881 183.811 160.597 184.03C160.316 184.245 160.104 184.54 159.962 184.912C159.823 185.281 159.753 185.696 159.753 186.156C159.753 186.622 159.824 187.045 159.966 187.426C160.111 187.804 160.324 188.105 160.606 188.329C160.89 188.551 161.242 188.662 161.662 188.662ZM166.508 189.429V182.883H167.479V183.872H167.547C167.667 183.548 167.883 183.285 168.195 183.084C168.508 182.882 168.86 182.781 169.252 182.781C169.326 182.781 169.418 182.782 169.529 182.785C169.64 182.788 169.724 182.792 169.78 182.798V183.821C169.746 183.812 169.668 183.799 169.546 183.782C169.427 183.763 169.3 183.753 169.167 183.753C168.849 183.753 168.564 183.819 168.314 183.953C168.067 184.084 167.871 184.265 167.726 184.498C167.584 184.728 167.513 184.991 167.513 185.287V189.429H166.508ZM173.432 189.565C172.841 189.565 172.323 189.424 171.877 189.143C171.434 188.862 171.087 188.468 170.837 187.963C170.59 187.457 170.466 186.866 170.466 186.19C170.466 185.508 170.59 184.913 170.837 184.405C171.087 183.896 171.434 183.501 171.877 183.22C172.323 182.939 172.841 182.798 173.432 182.798C174.023 182.798 174.54 182.939 174.983 183.22C175.429 183.501 175.776 183.896 176.023 184.405C176.273 184.913 176.398 185.508 176.398 186.19C176.398 186.866 176.273 187.457 176.023 187.963C175.776 188.468 175.429 188.862 174.983 189.143C174.54 189.424 174.023 189.565 173.432 189.565ZM173.432 188.662C173.881 188.662 174.251 188.547 174.54 188.316C174.83 188.086 175.045 187.784 175.184 187.409C175.323 187.034 175.393 186.628 175.393 186.19C175.393 185.753 175.323 185.345 175.184 184.967C175.045 184.589 174.83 184.284 174.54 184.051C174.251 183.818 173.881 183.701 173.432 183.701C172.983 183.701 172.614 183.818 172.324 184.051C172.035 184.284 171.82 184.589 171.681 184.967C171.542 185.345 171.472 185.753 171.472 186.19C171.472 186.628 171.542 187.034 171.681 187.409C171.82 187.784 172.035 188.086 172.324 188.316C172.614 188.547 172.983 188.662 173.432 188.662ZM180.592 189.565C180.002 189.565 179.483 189.424 179.037 189.143C178.594 188.862 178.247 188.468 177.997 187.963C177.75 187.457 177.627 186.866 177.627 186.19C177.627 185.508 177.75 184.913 177.997 184.405C178.247 183.896 178.594 183.501 179.037 183.22C179.483 182.939 180.002 182.798 180.592 182.798C181.183 182.798 181.7 182.939 182.144 183.22C182.59 183.501 182.936 183.896 183.183 184.405C183.433 184.913 183.558 185.508 183.558 186.19C183.558 186.866 183.433 187.457 183.183 187.963C182.936 188.468 182.59 188.862 182.144 189.143C181.7 189.424 181.183 189.565 180.592 189.565ZM180.592 188.662C181.041 188.662 181.411 188.547 181.7 188.316C181.99 188.086 182.205 187.784 182.344 187.409C182.483 187.034 182.553 186.628 182.553 186.19C182.553 185.753 182.483 185.345 182.344 184.967C182.205 184.589 181.99 184.284 181.7 184.051C181.411 183.818 181.041 183.701 180.592 183.701C180.144 183.701 179.774 183.818 179.485 184.051C179.195 184.284 178.98 184.589 178.841 184.967C178.702 185.345 178.632 185.753 178.632 186.19C178.632 186.628 178.702 187.034 178.841 187.409C178.98 187.784 179.195 188.086 179.485 188.316C179.774 188.547 180.144 188.662 180.592 188.662ZM185.094 189.429V182.883H186.065V183.906H186.15C186.287 183.557 186.507 183.285 186.811 183.092C187.115 182.896 187.48 182.798 187.906 182.798C188.338 182.798 188.697 182.896 188.984 183.092C189.274 183.285 189.5 183.557 189.662 183.906H189.73C189.898 183.568 190.149 183.299 190.484 183.101C190.819 182.899 191.221 182.798 191.69 182.798C192.275 182.798 192.754 182.981 193.126 183.348C193.498 183.711 193.684 184.278 193.684 185.048V189.429H192.679V185.048C192.679 184.565 192.547 184.22 192.282 184.013C192.018 183.805 191.707 183.701 191.349 183.701C190.889 183.701 190.532 183.841 190.28 184.119C190.027 184.395 189.9 184.744 189.9 185.167V189.429H188.878V184.946C188.878 184.574 188.757 184.274 188.515 184.047C188.274 183.816 187.963 183.701 187.582 183.701C187.321 183.701 187.077 183.771 186.849 183.91C186.625 184.049 186.443 184.243 186.304 184.49C186.167 184.734 186.099 185.017 186.099 185.338V189.429H185.094Z" fill="black"/>
<path d="M444.779 138.178V129.45H445.836V133.78H445.938L449.858 129.45H451.239L447.574 133.388L451.239 138.178H449.961L446.926 134.121L445.836 135.348V138.178H444.779ZM452.881 138.178V131.632H453.886V138.178H452.881ZM453.392 130.541C453.196 130.541 453.027 130.475 452.885 130.341C452.746 130.208 452.676 130.047 452.676 129.86C452.676 129.672 452.746 129.512 452.885 129.378C453.027 129.244 453.196 129.178 453.392 129.178C453.588 129.178 453.756 129.244 453.895 129.378C454.037 129.512 454.108 129.672 454.108 129.86C454.108 130.047 454.037 130.208 453.895 130.341C453.756 130.475 453.588 130.541 453.392 130.541ZM458.575 131.632V132.485H455.183V131.632H458.575ZM456.171 130.064H457.177V136.303C457.177 136.587 457.218 136.8 457.301 136.942C457.386 137.081 457.494 137.175 457.625 137.223C457.758 137.269 457.899 137.291 458.046 137.291C458.157 137.291 458.248 137.286 458.319 137.274C458.39 137.26 458.447 137.249 458.49 137.24L458.694 138.144C458.626 138.169 458.531 138.195 458.409 138.22C458.287 138.249 458.132 138.263 457.944 138.263C457.66 138.263 457.382 138.202 457.109 138.08C456.839 137.958 456.615 137.771 456.436 137.521C456.26 137.271 456.171 136.956 456.171 136.575V130.064ZM462.676 138.314C462.063 138.314 461.534 138.169 461.091 137.879C460.648 137.59 460.307 137.191 460.068 136.682C459.83 136.173 459.711 135.593 459.711 134.939C459.711 134.274 459.833 133.688 460.077 133.179C460.324 132.668 460.668 132.269 461.108 131.982C461.551 131.692 462.068 131.547 462.659 131.547C463.12 131.547 463.534 131.632 463.904 131.803C464.273 131.973 464.576 132.212 464.811 132.519C465.047 132.825 465.193 133.183 465.25 133.593H464.245C464.168 133.294 463.997 133.03 463.733 132.8C463.472 132.567 463.12 132.45 462.676 132.45C462.284 132.45 461.941 132.553 461.645 132.757C461.353 132.959 461.124 133.244 460.959 133.614C460.797 133.98 460.716 134.411 460.716 134.905C460.716 135.411 460.796 135.851 460.955 136.226C461.117 136.601 461.344 136.892 461.637 137.1C461.932 137.307 462.279 137.411 462.676 137.411C462.938 137.411 463.175 137.365 463.388 137.274C463.601 137.183 463.782 137.053 463.929 136.882C464.077 136.712 464.182 136.507 464.245 136.269H465.25C465.193 136.655 465.053 137.003 464.828 137.313C464.607 137.619 464.313 137.864 463.946 138.046C463.583 138.225 463.159 138.314 462.676 138.314ZM467.726 134.24V138.178H466.72V129.45H467.726V132.655H467.811C467.965 132.317 468.195 132.048 468.502 131.85C468.811 131.648 469.223 131.547 469.738 131.547C470.184 131.547 470.574 131.637 470.909 131.816C471.245 131.992 471.505 132.263 471.689 132.629C471.877 132.993 471.97 133.456 471.97 134.019V138.178H470.965V134.087C470.965 133.567 470.83 133.165 470.56 132.881C470.293 132.594 469.922 132.45 469.448 132.45C469.118 132.45 468.823 132.52 468.561 132.659C468.303 132.798 468.098 133.002 467.948 133.269C467.8 133.536 467.726 133.86 467.726 134.24ZM476.555 138.314C475.924 138.314 475.38 138.175 474.923 137.896C474.468 137.615 474.117 137.223 473.87 136.72C473.626 136.215 473.503 135.627 473.503 134.956C473.503 134.286 473.626 133.695 473.87 133.183C474.117 132.669 474.461 132.269 474.901 131.982C475.344 131.692 475.861 131.547 476.452 131.547C476.793 131.547 477.13 131.604 477.462 131.718C477.795 131.831 478.097 132.016 478.37 132.271C478.643 132.524 478.86 132.86 479.022 133.277C479.184 133.695 479.265 134.209 479.265 134.82V135.246H474.219V134.377H478.242C478.242 134.007 478.168 133.678 478.021 133.388C477.876 133.098 477.668 132.869 477.398 132.702C477.131 132.534 476.816 132.45 476.452 132.45C476.052 132.45 475.705 132.55 475.413 132.749C475.123 132.945 474.9 133.2 474.744 133.516C474.587 133.831 474.509 134.169 474.509 134.53V135.11C474.509 135.604 474.594 136.023 474.765 136.367C474.938 136.708 475.178 136.968 475.485 137.146C475.792 137.323 476.148 137.411 476.555 137.411C476.819 137.411 477.057 137.374 477.271 137.3C477.486 137.223 477.673 137.11 477.829 136.959C477.985 136.806 478.106 136.615 478.191 136.388L479.163 136.661C479.06 136.99 478.888 137.28 478.647 137.53C478.405 137.777 478.107 137.97 477.752 138.11C477.397 138.246 476.998 138.314 476.555 138.314ZM481.8 134.24V138.178H480.795V131.632H481.766V132.655H481.851C482.005 132.323 482.238 132.056 482.55 131.854C482.863 131.649 483.266 131.547 483.761 131.547C484.204 131.547 484.592 131.638 484.924 131.82C485.256 131.999 485.515 132.271 485.7 132.638C485.884 133.002 485.976 133.462 485.976 134.019V138.178H484.971V134.087C484.971 133.573 484.837 133.172 484.57 132.885C484.303 132.595 483.937 132.45 483.471 132.45C483.15 132.45 482.863 132.52 482.61 132.659C482.36 132.798 482.163 133.002 482.018 133.269C481.873 133.536 481.8 133.86 481.8 134.24Z" fill="black"/>
<path d="M218.778 325.472V316.744H224.045V317.682H219.834V320.631H223.772V321.568H219.834V324.534H224.113V325.472H218.778ZM226.819 321.534V325.472H225.813V318.926H226.785V319.949H226.87C227.023 319.617 227.256 319.35 227.569 319.148C227.881 318.943 228.285 318.841 228.779 318.841C229.222 318.841 229.61 318.932 229.942 319.114C230.275 319.293 230.533 319.565 230.718 319.932C230.903 320.296 230.995 320.756 230.995 321.313V325.472H229.989V321.381C229.989 320.867 229.856 320.466 229.589 320.179C229.322 319.889 228.955 319.744 228.489 319.744C228.168 319.744 227.881 319.814 227.628 319.953C227.378 320.092 227.181 320.296 227.036 320.563C226.891 320.83 226.819 321.153 226.819 321.534ZM235.679 318.926V319.778H232.287V318.926H235.679ZM233.276 317.358H234.282V323.597C234.282 323.881 234.323 324.094 234.405 324.236C234.49 324.375 234.598 324.469 234.729 324.517C234.862 324.563 235.003 324.585 235.151 324.585C235.262 324.585 235.353 324.58 235.424 324.568C235.495 324.554 235.551 324.543 235.594 324.534L235.799 325.438C235.73 325.463 235.635 325.489 235.513 325.514C235.391 325.543 235.236 325.557 235.049 325.557C234.764 325.557 234.486 325.496 234.213 325.374C233.943 325.252 233.719 325.065 233.54 324.815C233.364 324.565 233.276 324.25 233.276 323.869V317.358ZM237.192 325.472V318.926H238.164V319.915H238.232C238.351 319.591 238.567 319.328 238.88 319.127C239.192 318.925 239.544 318.824 239.936 318.824C240.01 318.824 240.103 318.825 240.213 318.828C240.324 318.831 240.408 318.835 240.465 318.841V319.864C240.431 319.855 240.353 319.842 240.23 319.825C240.111 319.805 239.985 319.796 239.851 319.796C239.533 319.796 239.249 319.862 238.999 319.996C238.752 320.127 238.556 320.308 238.411 320.541C238.269 320.771 238.198 321.034 238.198 321.33V325.472H237.192ZM242.504 327.926C242.333 327.926 242.181 327.912 242.048 327.884C241.914 327.858 241.822 327.832 241.771 327.807L242.027 326.921C242.271 326.983 242.487 327.006 242.674 326.989C242.862 326.972 243.028 326.888 243.173 326.737C243.321 326.59 243.456 326.35 243.578 326.017L243.765 325.506L241.345 318.926H242.436L244.242 324.142H244.311L246.117 318.926H247.208L244.43 326.426C244.305 326.764 244.15 327.044 243.965 327.266C243.781 327.49 243.566 327.656 243.322 327.764C243.081 327.872 242.808 327.926 242.504 327.926Z" fill="black"/>
<path d="M569.465 293.086H570.522V298.865C570.522 299.461 570.381 299.994 570.1 300.463C569.821 300.929 569.428 301.296 568.919 301.566C568.411 301.833 567.814 301.967 567.13 301.967C566.445 301.967 565.848 301.833 565.34 301.566C564.831 301.296 564.436 300.929 564.155 300.463C563.877 299.994 563.738 299.461 563.738 298.865V293.086H564.794V298.779C564.794 299.206 564.888 299.585 565.076 299.917C565.263 300.247 565.53 300.507 565.877 300.697C566.226 300.884 566.644 300.978 567.13 300.978C567.615 300.978 568.033 300.884 568.382 300.697C568.732 300.507 568.999 300.247 569.184 299.917C569.371 299.585 569.465 299.206 569.465 298.779V293.086ZM572.496 304.268V295.268H573.467V296.308H573.587C573.66 296.194 573.763 296.049 573.893 295.873C574.027 295.694 574.217 295.535 574.464 295.396C574.714 295.254 575.052 295.183 575.479 295.183C576.03 295.183 576.516 295.321 576.936 295.596C577.356 295.872 577.685 296.262 577.92 296.768C578.156 297.274 578.274 297.87 578.274 298.558C578.274 299.251 578.156 299.852 577.92 300.36C577.685 300.866 577.358 301.258 576.94 301.536C576.523 301.812 576.041 301.95 575.496 301.95C575.075 301.95 574.739 301.88 574.486 301.741C574.233 301.599 574.038 301.438 573.902 301.259C573.766 301.078 573.66 300.927 573.587 300.808H573.501V304.268H572.496ZM573.484 298.541C573.484 299.035 573.557 299.471 573.702 299.849C573.847 300.224 574.058 300.518 574.337 300.731C574.615 300.941 574.956 301.046 575.359 301.046C575.78 301.046 576.131 300.936 576.412 300.714C576.696 300.49 576.909 300.188 577.051 299.811C577.196 299.43 577.268 299.007 577.268 298.541C577.268 298.081 577.197 297.666 577.055 297.296C576.916 296.924 576.704 296.63 576.42 296.414C576.139 296.196 575.785 296.086 575.359 296.086C574.95 296.086 574.606 296.19 574.328 296.397C574.05 296.602 573.839 296.889 573.697 297.258C573.555 297.625 573.484 298.052 573.484 298.541Z" fill="black"/>
<path d="M840.67 189.438V180.71H841.727V188.5H845.784V189.438H840.67ZM849.21 189.591C848.795 189.591 848.419 189.513 848.08 189.357C847.742 189.197 847.474 188.969 847.275 188.67C847.076 188.369 846.977 188.006 846.977 187.58C846.977 187.205 847.051 186.901 847.198 186.668C847.346 186.432 847.544 186.247 847.791 186.114C848.038 185.98 848.311 185.881 848.609 185.815C848.91 185.747 849.213 185.693 849.517 185.653C849.914 185.602 850.237 185.564 850.484 185.538C850.734 185.51 850.916 185.463 851.029 185.398C851.146 185.332 851.204 185.219 851.204 185.057V185.023C851.204 184.602 851.089 184.276 850.859 184.043C850.632 183.81 850.286 183.693 849.823 183.693C849.343 183.693 848.967 183.798 848.694 184.009C848.421 184.219 848.23 184.443 848.119 184.682L847.164 184.341C847.335 183.943 847.562 183.634 847.846 183.412C848.133 183.187 848.446 183.031 848.784 182.943C849.124 182.852 849.46 182.807 849.789 182.807C849.999 182.807 850.241 182.832 850.514 182.884C850.789 182.932 851.055 183.033 851.311 183.186C851.569 183.339 851.784 183.571 851.954 183.881C852.124 184.19 852.21 184.605 852.21 185.125V189.438H851.204V188.551H851.153C851.085 188.693 850.971 188.845 850.812 189.007C850.653 189.169 850.441 189.307 850.177 189.42C849.913 189.534 849.59 189.591 849.21 189.591ZM849.363 188.688C849.761 188.688 850.096 188.609 850.369 188.453C850.644 188.297 850.852 188.095 850.991 187.848C851.133 187.601 851.204 187.341 851.204 187.068V186.148C851.161 186.199 851.068 186.246 850.923 186.288C850.781 186.328 850.616 186.364 850.428 186.395C850.244 186.423 850.063 186.449 849.887 186.472C849.714 186.491 849.573 186.509 849.465 186.523C849.204 186.557 848.96 186.612 848.732 186.689C848.508 186.763 848.326 186.875 848.187 187.026C848.051 187.173 847.982 187.375 847.982 187.631C847.982 187.98 848.112 188.244 848.37 188.423C848.632 188.599 848.963 188.688 849.363 188.688ZM855.051 185.5V189.438H854.045V182.892H855.017V183.915H855.102C855.256 183.582 855.488 183.315 855.801 183.114C856.113 182.909 856.517 182.807 857.011 182.807C857.454 182.807 857.842 182.898 858.175 183.08C858.507 183.259 858.765 183.531 858.95 183.898C859.135 184.261 859.227 184.722 859.227 185.278V189.438H858.221V185.347C858.221 184.832 858.088 184.432 857.821 184.145C857.554 183.855 857.187 183.71 856.721 183.71C856.4 183.71 856.113 183.78 855.861 183.919C855.611 184.058 855.413 184.261 855.268 184.528C855.123 184.795 855.051 185.119 855.051 185.5ZM862.991 189.591C862.576 189.591 862.2 189.513 861.862 189.357C861.524 189.197 861.255 188.969 861.056 188.67C860.857 188.369 860.758 188.006 860.758 187.58C860.758 187.205 860.832 186.901 860.98 186.668C861.127 186.432 861.325 186.247 861.572 186.114C861.819 185.98 862.092 185.881 862.39 185.815C862.691 185.747 862.994 185.693 863.298 185.653C863.696 185.602 864.018 185.564 864.265 185.538C864.515 185.51 864.697 185.463 864.811 185.398C864.927 185.332 864.985 185.219 864.985 185.057V185.023C864.985 184.602 864.87 184.276 864.64 184.043C864.413 183.81 864.068 183.693 863.605 183.693C863.124 183.693 862.748 183.798 862.475 184.009C862.203 184.219 862.011 184.443 861.9 184.682L860.946 184.341C861.116 183.943 861.343 183.634 861.627 183.412C861.914 183.187 862.227 183.031 862.565 182.943C862.906 182.852 863.241 182.807 863.571 182.807C863.781 182.807 864.022 182.832 864.295 182.884C864.571 182.932 864.836 183.033 865.092 183.186C865.35 183.339 865.565 183.571 865.735 183.881C865.906 184.19 865.991 184.605 865.991 185.125V189.438H864.985V188.551H864.934C864.866 188.693 864.752 188.845 864.593 189.007C864.434 189.169 864.223 189.307 863.958 189.42C863.694 189.534 863.372 189.591 862.991 189.591ZM863.144 188.688C863.542 188.688 863.877 188.609 864.15 188.453C864.426 188.297 864.633 188.095 864.772 187.848C864.914 187.601 864.985 187.341 864.985 187.068V186.148C864.943 186.199 864.849 186.246 864.704 186.288C864.562 186.328 864.397 186.364 864.21 186.395C864.025 186.423 863.845 186.449 863.669 186.472C863.495 186.491 863.355 186.509 863.247 186.523C862.985 186.557 862.741 186.612 862.514 186.689C862.289 186.763 862.107 186.875 861.968 187.026C861.832 187.173 861.764 187.375 861.764 187.631C861.764 187.98 861.893 188.244 862.151 188.423C862.413 188.599 862.744 188.688 863.144 188.688ZM867.827 189.438V182.892H868.832V189.438H867.827ZM868.338 181.801C868.142 181.801 867.973 181.734 867.831 181.601C867.692 181.467 867.622 181.307 867.622 181.119C867.622 180.932 867.692 180.771 867.831 180.638C867.973 180.504 868.142 180.438 868.338 180.438C868.534 180.438 868.702 180.504 868.841 180.638C868.983 180.771 869.054 180.932 869.054 181.119C869.054 181.307 868.983 181.467 868.841 181.601C868.702 181.734 868.534 181.801 868.338 181.801Z" fill="black"/>
<path d="M703.844 213.857V205.13H704.901V212.92H708.958V213.857H703.844ZM710.458 213.857V207.312H711.463V213.857H710.458ZM710.969 206.221C710.773 206.221 710.604 206.154 710.462 206.021C710.323 205.887 710.253 205.727 710.253 205.539C710.253 205.352 710.323 205.191 710.462 205.058C710.604 204.924 710.773 204.857 710.969 204.857C711.165 204.857 711.333 204.924 711.472 205.058C711.614 205.191 711.685 205.352 711.685 205.539C711.685 205.727 711.614 205.887 711.472 206.021C711.333 206.154 711.165 206.221 710.969 206.221ZM718.658 207.312L716.237 213.857H715.215L712.794 207.312H713.885L715.692 212.528H715.76L717.567 207.312H718.658ZM719.985 213.857V207.312H720.991V213.857H719.985ZM720.497 206.221C720.3 206.221 720.131 206.154 719.989 206.021C719.85 205.887 719.781 205.727 719.781 205.539C719.781 205.352 719.85 205.191 719.989 205.058C720.131 204.924 720.3 204.857 720.497 204.857C720.693 204.857 720.86 204.924 720.999 205.058C721.141 205.191 721.212 205.352 721.212 205.539C721.212 205.727 721.141 205.887 720.999 206.021C720.86 206.154 720.693 206.221 720.497 206.221ZM723.838 209.92V213.857H722.833V207.312H723.804V208.335H723.89C724.043 208.002 724.276 207.735 724.588 207.534C724.901 207.329 725.304 207.227 725.799 207.227C726.242 207.227 726.63 207.318 726.962 207.499C727.294 207.678 727.553 207.951 727.738 208.318C727.922 208.681 728.015 209.142 728.015 209.698V213.857H727.009V209.767C727.009 209.252 726.875 208.852 726.608 208.565C726.341 208.275 725.975 208.13 725.509 208.13C725.188 208.13 724.901 208.2 724.648 208.339C724.398 208.478 724.201 208.681 724.056 208.948C723.911 209.215 723.838 209.539 723.838 209.92ZM732.494 216.448C732.009 216.448 731.591 216.386 731.242 216.261C730.892 216.139 730.601 215.977 730.368 215.775C730.138 215.576 729.955 215.363 729.818 215.136L730.619 214.573C730.71 214.693 730.825 214.829 730.965 214.982C731.104 215.139 731.294 215.274 731.536 215.387C731.78 215.504 732.099 215.562 732.494 215.562C733.023 215.562 733.459 215.434 733.803 215.178C734.146 214.923 734.318 214.522 734.318 213.977V212.647H734.233C734.159 212.767 734.054 212.914 733.918 213.09C733.784 213.264 733.591 213.419 733.338 213.555C733.088 213.688 732.75 213.755 732.324 213.755C731.796 213.755 731.321 213.63 730.901 213.38C730.483 213.13 730.152 212.767 729.908 212.289C729.666 211.812 729.546 211.232 729.546 210.551C729.546 209.88 729.663 209.296 729.899 208.799C730.135 208.299 730.463 207.913 730.884 207.64C731.304 207.365 731.79 207.227 732.341 207.227C732.767 207.227 733.105 207.298 733.355 207.44C733.608 207.579 733.801 207.738 733.935 207.917C734.071 208.093 734.176 208.238 734.25 208.352H734.352V207.312H735.324V214.045C735.324 214.607 735.196 215.065 734.94 215.417C734.688 215.772 734.347 216.032 733.918 216.197C733.492 216.365 733.017 216.448 732.494 216.448ZM732.46 212.852C732.864 212.852 733.205 212.759 733.483 212.575C733.761 212.39 733.973 212.124 734.118 211.778C734.263 211.431 734.335 211.017 734.335 210.534C734.335 210.062 734.264 209.646 734.122 209.285C733.98 208.924 733.77 208.642 733.492 208.437C733.213 208.232 732.869 208.13 732.46 208.13C732.034 208.13 731.679 208.238 731.395 208.454C731.114 208.67 730.902 208.96 730.76 209.323C730.621 209.687 730.551 210.09 730.551 210.534C730.551 210.988 730.622 211.39 730.764 211.74C730.909 212.086 731.122 212.359 731.403 212.558C731.688 212.754 732.04 212.852 732.46 212.852Z" fill="black"/>
<path d="M662.873 103.286H660.18V94.5589H662.993C663.839 94.5589 664.564 94.7336 665.166 95.083C665.768 95.4296 666.23 95.9282 666.551 96.5787C666.872 97.2265 667.032 98.002 667.032 98.9055C667.032 99.8145 666.87 100.597 666.546 101.253C666.223 101.907 665.751 102.41 665.132 102.762C664.512 103.111 663.76 103.286 662.873 103.286ZM661.237 102.349H662.805C663.527 102.349 664.125 102.209 664.599 101.931C665.073 101.653 665.427 101.256 665.66 100.742C665.893 100.228 666.01 99.6157 666.01 98.9055C666.01 98.2009 665.895 97.5944 665.664 97.0858C665.434 96.5745 665.091 96.1824 664.633 95.9097C664.176 95.6341 663.606 95.4964 662.924 95.4964H661.237V102.349ZM668.669 103.286V96.7407H669.674V103.286H668.669ZM669.18 95.6498C668.984 95.6498 668.815 95.583 668.673 95.4495C668.534 95.316 668.464 95.1555 668.464 94.968C668.464 94.7805 668.534 94.6199 668.673 94.4864C668.815 94.3529 668.984 94.2861 669.18 94.2861C669.376 94.2861 669.544 94.3529 669.683 94.4864C669.825 94.6199 669.896 94.7805 669.896 94.968C669.896 95.1555 669.825 95.316 669.683 95.4495C669.544 95.583 669.376 95.6498 669.18 95.6498ZM672.522 99.3486V103.286H671.516V96.7407H672.488V97.7634H672.573C672.727 97.431 672.959 97.164 673.272 96.9623C673.584 96.7577 673.988 96.6555 674.482 96.6555C674.925 96.6555 675.313 96.7464 675.646 96.9282C675.978 97.1072 676.236 97.3799 676.421 97.7464C676.606 98.11 676.698 98.5702 676.698 99.127V103.286H675.692V99.1952C675.692 98.681 675.559 98.2805 675.292 97.9935C675.025 97.7037 674.658 97.5589 674.192 97.5589C673.871 97.5589 673.584 97.6285 673.332 97.7677C673.082 97.9069 672.884 98.11 672.739 98.377C672.594 98.6441 672.522 98.968 672.522 99.3486ZM678.536 103.286V96.7407H679.542V103.286H678.536ZM679.047 95.6498C678.851 95.6498 678.682 95.583 678.54 95.4495C678.401 95.316 678.331 95.1555 678.331 94.968C678.331 94.7805 678.401 94.6199 678.54 94.4864C678.682 94.3529 678.851 94.2861 679.047 94.2861C679.243 94.2861 679.411 94.3529 679.55 94.4864C679.692 94.6199 679.763 94.7805 679.763 94.968C679.763 95.1555 679.692 95.316 679.55 95.4495C679.411 95.583 679.243 95.6498 679.047 95.6498ZM682.389 99.3486V103.286H681.383V96.7407H682.355V97.7634H682.44C682.594 97.431 682.827 97.164 683.139 96.9623C683.452 96.7577 683.855 96.6555 684.349 96.6555C684.793 96.6555 685.18 96.7464 685.513 96.9282C685.845 97.1072 686.104 97.3799 686.288 97.7464C686.473 98.11 686.565 98.5702 686.565 99.127V103.286H685.56V99.1952C685.56 98.681 685.426 98.2805 685.159 97.9935C684.892 97.7037 684.526 97.5589 684.06 97.5589C683.739 97.5589 683.452 97.6285 683.199 97.7677C682.949 97.9069 682.751 98.11 682.607 98.377C682.462 98.6441 682.389 98.968 682.389 99.3486ZM691.045 105.877C690.559 105.877 690.142 105.815 689.792 105.69C689.443 105.567 689.152 105.405 688.919 105.204C688.689 105.005 688.505 104.792 688.369 104.565L689.17 104.002C689.261 104.121 689.376 104.258 689.515 104.411C689.654 104.567 689.845 104.702 690.086 104.816C690.331 104.932 690.65 104.991 691.045 104.991C691.573 104.991 692.01 104.863 692.353 104.607C692.697 104.351 692.869 103.951 692.869 103.405V102.076H692.784C692.71 102.195 692.605 102.343 692.468 102.519C692.335 102.692 692.142 102.847 691.889 102.984C691.639 103.117 691.301 103.184 690.875 103.184C690.346 103.184 689.872 103.059 689.451 102.809C689.034 102.559 688.703 102.195 688.458 101.718C688.217 101.241 688.096 100.661 688.096 99.9793C688.096 99.3089 688.214 98.7251 688.45 98.2279C688.686 97.7279 689.014 97.3415 689.434 97.0688C689.855 96.7932 690.341 96.6555 690.892 96.6555C691.318 96.6555 691.656 96.7265 691.906 96.8685C692.159 97.0077 692.352 97.1668 692.485 97.3458C692.622 97.5219 692.727 97.6668 692.801 97.7805H692.903V96.7407H693.875V103.474C693.875 104.036 693.747 104.494 693.491 104.846C693.238 105.201 692.897 105.461 692.468 105.626C692.042 105.793 691.568 105.877 691.045 105.877ZM691.011 102.28C691.414 102.28 691.755 102.188 692.034 102.003C692.312 101.819 692.524 101.553 692.669 101.207C692.814 100.86 692.886 100.445 692.886 99.9623C692.886 99.4907 692.815 99.0745 692.673 98.7137C692.531 98.3529 692.321 98.0702 692.042 97.8657C691.764 97.6611 691.42 97.5589 691.011 97.5589C690.585 97.5589 690.23 97.6668 689.946 97.8827C689.664 98.0986 689.453 98.3884 689.311 98.752C689.171 99.1157 689.102 99.5191 689.102 99.9623C689.102 100.417 689.173 100.819 689.315 101.168C689.46 101.515 689.673 101.788 689.954 101.986C690.238 102.182 690.591 102.28 691.011 102.28Z" fill="black"/>
<path d="M314.294 128.32V119.593H317.345C317.953 119.593 318.455 119.698 318.85 119.908C319.244 120.116 319.539 120.396 319.732 120.748C319.925 121.097 320.021 121.485 320.021 121.911C320.021 122.286 319.955 122.596 319.821 122.84C319.69 123.085 319.517 123.278 319.301 123.42C319.088 123.562 318.857 123.667 318.607 123.735V123.82C318.874 123.837 319.142 123.931 319.412 124.102C319.682 124.272 319.908 124.516 320.09 124.835C320.271 125.153 320.362 125.542 320.362 126.002C320.362 126.44 320.263 126.833 320.064 127.183C319.865 127.532 319.551 127.809 319.122 128.013C318.693 128.218 318.135 128.32 317.448 128.32H314.294ZM315.351 127.383H317.448C318.138 127.383 318.628 127.249 318.918 126.982C319.21 126.712 319.357 126.386 319.357 126.002C319.357 125.707 319.281 125.434 319.131 125.184C318.98 124.931 318.766 124.729 318.487 124.579C318.209 124.425 317.879 124.349 317.499 124.349H315.351V127.383ZM315.351 123.428H317.311C317.629 123.428 317.916 123.366 318.172 123.241C318.431 123.116 318.635 122.94 318.786 122.712C318.939 122.485 319.016 122.218 319.016 121.911C319.016 121.528 318.882 121.202 318.615 120.935C318.348 120.665 317.925 120.531 317.345 120.531H315.351V123.428ZM323.889 128.474C323.474 128.474 323.097 128.396 322.759 128.239C322.421 128.08 322.153 127.852 321.954 127.553C321.755 127.252 321.656 126.888 321.656 126.462C321.656 126.087 321.73 125.783 321.877 125.55C322.025 125.315 322.222 125.13 322.47 124.996C322.717 124.863 322.989 124.763 323.288 124.698C323.589 124.63 323.891 124.576 324.195 124.536C324.593 124.485 324.916 124.447 325.163 124.421C325.413 124.393 325.595 124.346 325.708 124.281C325.825 124.215 325.883 124.102 325.883 123.94V123.906C325.883 123.485 325.768 123.158 325.538 122.925C325.311 122.692 324.965 122.576 324.502 122.576C324.022 122.576 323.646 122.681 323.373 122.891C323.1 123.102 322.909 123.326 322.798 123.565L321.843 123.224C322.014 122.826 322.241 122.516 322.525 122.295C322.812 122.07 323.124 121.914 323.463 121.826C323.803 121.735 324.139 121.69 324.468 121.69C324.678 121.69 324.92 121.715 325.193 121.766C325.468 121.815 325.734 121.915 325.989 122.069C326.248 122.222 326.463 122.454 326.633 122.763C326.803 123.073 326.889 123.488 326.889 124.008V128.32H325.883V127.434H325.832C325.764 127.576 325.65 127.728 325.491 127.89C325.332 128.052 325.12 128.19 324.856 128.303C324.592 128.417 324.269 128.474 323.889 128.474ZM324.042 127.57C324.44 127.57 324.775 127.492 325.048 127.336C325.323 127.18 325.531 126.978 325.67 126.731C325.812 126.484 325.883 126.224 325.883 125.951V125.031C325.84 125.082 325.747 125.129 325.602 125.171C325.46 125.211 325.295 125.246 325.107 125.278C324.923 125.306 324.742 125.332 324.566 125.354C324.393 125.374 324.252 125.391 324.144 125.406C323.883 125.44 323.639 125.495 323.411 125.572C323.187 125.646 323.005 125.758 322.866 125.908C322.73 126.056 322.661 126.258 322.661 126.513C322.661 126.863 322.791 127.127 323.049 127.306C323.311 127.482 323.641 127.57 324.042 127.57ZM331.571 121.775V122.627H328.179V121.775H331.571ZM329.167 120.207H330.173V126.445C330.173 126.729 330.214 126.942 330.297 127.085C330.382 127.224 330.49 127.317 330.621 127.366C330.754 127.411 330.895 127.434 331.042 127.434C331.153 127.434 331.244 127.428 331.315 127.417C331.386 127.403 331.443 127.391 331.486 127.383L331.69 128.286C331.622 128.312 331.527 128.337 331.405 128.363C331.282 128.391 331.128 128.406 330.94 128.406C330.656 128.406 330.378 128.344 330.105 128.222C329.835 128.1 329.611 127.914 329.432 127.664C329.255 127.414 329.167 127.099 329.167 126.718V120.207ZM334.23 124.383V128.32H333.224V119.593H334.23V122.798H334.315C334.469 122.46 334.699 122.191 335.005 121.992C335.315 121.79 335.727 121.69 336.241 121.69C336.687 121.69 337.078 121.779 337.413 121.958C337.748 122.134 338.008 122.406 338.193 122.772C338.38 123.136 338.474 123.599 338.474 124.161V128.32H337.469V124.229C337.469 123.71 337.334 123.308 337.064 123.023C336.797 122.737 336.426 122.593 335.951 122.593C335.622 122.593 335.326 122.663 335.065 122.802C334.807 122.941 334.602 123.144 334.451 123.411C334.304 123.678 334.23 124.002 334.23 124.383Z" fill="black"/>
<path d="M77.5648 12V3.27273H78.6216V11.0625H82.6784V12H77.5648ZM86.8375 12.1364C86.2466 12.1364 85.7281 11.9957 85.2821 11.7145C84.8389 11.4332 84.4923 11.0398 84.2423 10.5341C83.9952 10.0284 83.8716 9.4375 83.8716 8.76136C83.8716 8.07955 83.9952 7.48437 84.2423 6.97585C84.4923 6.46733 84.8389 6.07244 85.2821 5.79119C85.7281 5.50994 86.2466 5.36932 86.8375 5.36932C87.4284 5.36932 87.9455 5.50994 88.3886 5.79119C88.8347 6.07244 89.1813 6.46733 89.4284 6.97585C89.6784 7.48437 89.8034 8.07955 89.8034 8.76136C89.8034 9.4375 89.6784 10.0284 89.4284 10.5341C89.1813 11.0398 88.8347 11.4332 88.3886 11.7145C87.9455 11.9957 87.4284 12.1364 86.8375 12.1364ZM86.8375 11.233C87.2864 11.233 87.6557 11.1179 87.9455 10.8878C88.2352 10.6577 88.4497 10.3551 88.5889 9.98011C88.7281 9.60511 88.7977 9.19886 88.7977 8.76136C88.7977 8.32386 88.7281 7.91619 88.5889 7.53835C88.4497 7.16051 88.2352 6.85511 87.9455 6.62216C87.6557 6.3892 87.2864 6.27273 86.8375 6.27273C86.3886 6.27273 86.0193 6.3892 85.7295 6.62216C85.4398 6.85511 85.2253 7.16051 85.0861 7.53835C84.9469 7.91619 84.8773 8.32386 84.8773 8.76136C84.8773 9.19886 84.9469 9.60511 85.0861 9.98011C85.2253 10.3551 85.4398 10.6577 85.7295 10.8878C86.0193 11.1179 86.3886 11.233 86.8375 11.233ZM92.5989 12L90.6045 5.45455H91.6614L93.0761 10.4659H93.1443L94.542 5.45455H95.6159L96.9966 10.4489H97.0648L98.4795 5.45455H99.5364L97.542 12H96.5534L95.1216 6.97159H95.0193L93.5875 12H92.5989ZM103.388 12.1364C102.757 12.1364 102.213 11.9972 101.755 11.7188C101.301 11.4375 100.95 11.0455 100.703 10.5426C100.459 10.0369 100.336 9.44886 100.336 8.77841C100.336 8.10795 100.459 7.51705 100.703 7.00568C100.95 6.49148 101.294 6.09091 101.734 5.80398C102.177 5.5142 102.694 5.36932 103.285 5.36932C103.626 5.36932 103.963 5.42614 104.295 5.53977C104.628 5.65341 104.93 5.83807 105.203 6.09375C105.476 6.34659 105.693 6.68182 105.855 7.09943C106.017 7.51705 106.098 8.03125 106.098 8.64205V9.06818H101.052V8.19886H105.075C105.075 7.82955 105.001 7.5 104.853 7.21023C104.709 6.92045 104.501 6.69176 104.231 6.52415C103.964 6.35653 103.649 6.27273 103.285 6.27273C102.885 6.27273 102.538 6.37216 102.246 6.57102C101.956 6.76705 101.733 7.02273 101.576 7.33807C101.42 7.65341 101.342 7.99148 101.342 8.35227V8.93182C101.342 9.42614 101.427 9.84517 101.598 10.1889C101.771 10.5298 102.011 10.7898 102.318 10.9688C102.625 11.1449 102.981 11.233 103.388 11.233C103.652 11.233 103.89 11.196 104.103 11.1222C104.319 11.0455 104.505 10.9318 104.662 10.7812C104.818 10.6278 104.939 10.4375 105.024 10.2102L105.996 10.483C105.893 10.8125 105.721 11.1023 105.48 11.3523C105.238 11.5994 104.94 11.7926 104.585 11.9318C104.23 12.0682 103.831 12.1364 103.388 12.1364ZM107.628 12V5.45455H108.599V6.44318H108.667C108.787 6.11932 109.003 5.85653 109.315 5.65483C109.628 5.45312 109.98 5.35227 110.372 5.35227C110.446 5.35227 110.538 5.35369 110.649 5.35653C110.76 5.35937 110.844 5.36364 110.9 5.36932V6.39205C110.866 6.38352 110.788 6.37074 110.666 6.35369C110.547 6.33381 110.42 6.32386 110.287 6.32386C109.969 6.32386 109.684 6.39062 109.434 6.52415C109.187 6.65483 108.991 6.83665 108.846 7.0696C108.704 7.29972 108.633 7.5625 108.633 7.85795V12H107.628ZM115.604 12V3.27273H116.661V11.0625H120.717V12H115.604ZM124.962 12.1364C124.331 12.1364 123.787 11.9972 123.33 11.7188C122.875 11.4375 122.524 11.0455 122.277 10.5426C122.033 10.0369 121.911 9.44886 121.911 8.77841C121.911 8.10795 122.033 7.51705 122.277 7.00568C122.524 6.49148 122.868 6.09091 123.308 5.80398C123.752 5.5142 124.269 5.36932 124.86 5.36932C125.2 5.36932 125.537 5.42614 125.869 5.53977C126.202 5.65341 126.504 5.83807 126.777 6.09375C127.05 6.34659 127.267 6.68182 127.429 7.09943C127.591 7.51705 127.672 8.03125 127.672 8.64205V9.06818H122.627V8.19886H126.649C126.649 7.82955 126.575 7.5 126.428 7.21023C126.283 6.92045 126.075 6.69176 125.806 6.52415C125.538 6.35653 125.223 6.27273 124.86 6.27273C124.459 6.27273 124.112 6.37216 123.82 6.57102C123.53 6.76705 123.307 7.02273 123.151 7.33807C122.994 7.65341 122.916 7.99148 122.916 8.35227V8.93182C122.916 9.42614 123.002 9.84517 123.172 10.1889C123.345 10.5298 123.585 10.7898 123.892 10.9688C124.199 11.1449 124.556 11.233 124.962 11.233C125.226 11.233 125.465 11.196 125.678 11.1222C125.894 11.0455 126.08 10.9318 126.236 10.7812C126.392 10.6278 126.513 10.4375 126.598 10.2102L127.57 10.483C127.467 10.8125 127.296 11.1023 127.054 11.3523C126.813 11.5994 126.514 11.7926 126.159 11.9318C125.804 12.0682 125.405 12.1364 124.962 12.1364ZM134.355 5.45455L131.934 12H130.912L128.491 5.45455H129.582L131.389 10.6705H131.457L133.264 5.45455H134.355ZM138.192 12.1364C137.562 12.1364 137.018 11.9972 136.56 11.7188C136.106 11.4375 135.755 11.0455 135.508 10.5426C135.263 10.0369 135.141 9.44886 135.141 8.77841C135.141 8.10795 135.263 7.51705 135.508 7.00568C135.755 6.49148 136.099 6.09091 136.539 5.80398C136.982 5.5142 137.499 5.36932 138.09 5.36932C138.431 5.36932 138.768 5.42614 139.1 5.53977C139.432 5.65341 139.735 5.83807 140.008 6.09375C140.28 6.34659 140.498 6.68182 140.66 7.09943C140.822 7.51705 140.902 8.03125 140.902 8.64205V9.06818H135.857V8.19886H139.88C139.88 7.82955 139.806 7.5 139.658 7.21023C139.513 6.92045 139.306 6.69176 139.036 6.52415C138.769 6.35653 138.454 6.27273 138.09 6.27273C137.689 6.27273 137.343 6.37216 137.05 6.57102C136.76 6.76705 136.537 7.02273 136.381 7.33807C136.225 7.65341 136.147 7.99148 136.147 8.35227V8.93182C136.147 9.42614 136.232 9.84517 136.402 10.1889C136.576 10.5298 136.816 10.7898 137.123 10.9688C137.429 11.1449 137.786 11.233 138.192 11.233C138.456 11.233 138.695 11.196 138.908 11.1222C139.124 11.0455 139.31 10.9318 139.466 10.7812C139.623 10.6278 139.743 10.4375 139.829 10.2102L140.8 10.483C140.698 10.8125 140.526 11.1023 140.285 11.3523C140.043 11.5994 139.745 11.7926 139.39 11.9318C139.035 12.0682 138.635 12.1364 138.192 12.1364ZM143.438 3.27273V12H142.432V3.27273H143.438Z" fill="black"/>
<path d="M76.508 14.3864H144.358V15.2045H76.508V14.3864Z" fill="black"/>
<rect x="637.293" y="276.579" width="157.843" height="51.1286" stroke="black" stroke-width="0.3"/>
<path d="M646.143 276.429V327.857" stroke="black" stroke-width="0.3"/>
<path d="M786.286 276.429V327.857" stroke="black" stroke-width="0.3"/>
<path d="M646.143 311.786H786.286" stroke="black" stroke-width="0.3"/>
<path d="M692.429 276.429V311.786" stroke="black" stroke-width="0.3"/>
<path d="M740 276.429V311.786" stroke="black" stroke-width="0.3"/>
<rect x="503.579" y="114.579" width="44.7" height="102.557" stroke="black" stroke-width="0.3"/>
<rect x="503.579" y="54.15" width="40.8429" height="54.9857" stroke="black" stroke-width="0.3"/>
<rect x="389.15" y="54.15" width="40.8429" height="116.7" stroke="black" stroke-width="0.3"/>
<rect x="395.479" y="96.4787" width="26.9" height="33.3286" stroke="black" stroke-width="0.1"/>
<path d="M508.571 54L508.571 109.286" stroke="black" stroke-width="0.1"/>
<path d="M503.429 125.357H548.057M503.429 169.072H548.206" stroke="black" stroke-width="0.3"/>
<rect x="506.05" y="127.336" width="19.1857" height="19.1857" stroke="black" stroke-width="0.1"/>
<path d="M506 136.929H525.286M515.643 127.286V146.572" stroke="black" stroke-width="0.1"/>
<circle cx="515.643" cy="136.929" r="2.57143" fill="black"/>
<path d="M525.286 127.286L506 146.572M506 127.286L525.286 146.572" stroke="black" stroke-width="0.1"/>
<rect x="504.714" y="127.286" width="1.28571" height="1.28571" fill="white"/>
<rect x="504.714" y="145.286" width="1.28571" height="1.28571" fill="white"/>
<rect x="506" y="146.571" width="1.28571" height="1.28572" fill="white"/>
<rect x="506" y="126" width="1.28571" height="1.28571" fill="white"/>
<rect x="525.286" y="127.286" width="1.28572" height="1.28571" fill="white"/>
<rect x="524" y="126" width="1.28571" height="1.28571" fill="white"/>
<rect x="524" y="146.571" width="1.28571" height="1.28572" fill="white"/>
<rect x="525.286" y="145.286" width="1.28572" height="1.28571" fill="white"/>
<rect x="526.621" y="127.336" width="19.1857" height="19.1857" stroke="black" stroke-width="0.1"/>
<path d="M526.571 136.929H545.857M536.214 127.286V146.572" stroke="black" stroke-width="0.1"/>
<circle cx="536.214" cy="136.929" r="2.57143" fill="black"/>
<path d="M545.857 127.286L526.571 146.572M526.571 127.286L545.857 146.572" stroke="black" stroke-width="0.1"/>
<rect x="525.286" y="127.286" width="1.28571" height="1.28571" fill="white"/>
<rect x="525.286" y="145.286" width="1.28571" height="1.28571" fill="white"/>
<rect x="526.571" y="146.571" width="1.28571" height="1.28572" fill="white"/>
<rect x="526.571" y="126" width="1.28571" height="1.28571" fill="white"/>
<rect x="545.857" y="127.286" width="1.28572" height="1.28571" fill="white"/>
<rect x="544.571" y="126" width="1.28571" height="1.28571" fill="white"/>
<rect x="544.571" y="146.571" width="1.28571" height="1.28572" fill="white"/>
<rect x="545.857" y="145.286" width="1.28572" height="1.28571" fill="white"/>
<rect x="506.05" y="147.907" width="19.1857" height="19.1857" stroke="black" stroke-width="0.1"/>
<path d="M506 157.5H525.286M515.643 147.857V167.143" stroke="black" stroke-width="0.1"/>
<circle cx="515.643" cy="157.5" r="2.57143" fill="black"/>
<path d="M525.286 147.857L506 167.143M506 147.857L525.286 167.143" stroke="black" stroke-width="0.1"/>
<rect x="504.714" y="147.857" width="1.28571" height="1.28571" fill="white"/>
<rect x="504.714" y="165.857" width="1.28571" height="1.28571" fill="white"/>
<rect x="506" y="167.143" width="1.28571" height="1.28572" fill="white"/>
<rect x="506" y="146.571" width="1.28571" height="1.28571" fill="white"/>
<rect x="525.286" y="147.857" width="1.28572" height="1.28571" fill="white"/>
<rect x="524" y="146.571" width="1.28571" height="1.28571" fill="white"/>
<rect x="524" y="167.143" width="1.28571" height="1.28572" fill="white"/>
<rect x="525.286" y="165.857" width="1.28572" height="1.28571" fill="white"/>
<rect x="526.621" y="147.907" width="19.1857" height="19.1857" stroke="black" stroke-width="0.1"/>
<path d="M526.571 157.5H545.857M536.214 147.857V167.143" stroke="black" stroke-width="0.1"/>
<circle cx="536.214" cy="157.5" r="2.57143" fill="black"/>
<path d="M545.857 147.857L526.571 167.143M526.571 147.857L545.857 167.143" stroke="black" stroke-width="0.1"/>
<rect x="525.286" y="147.857" width="1.28571" height="1.28571" fill="white"/>
<rect x="525.286" y="165.857" width="1.28571" height="1.28571" fill="white"/>
<rect x="526.571" y="167.143" width="1.28571" height="1.28572" fill="white"/>
<rect x="526.571" y="146.571" width="1.28571" height="1.28571" fill="white"/>
<rect x="545.857" y="147.857" width="1.28572" height="1.28571" fill="white"/>
<rect x="544.571" y="146.571" width="1.28571" height="1.28571" fill="white"/>
<rect x="544.571" y="167.143" width="1.28571" height="1.28572" fill="white"/>
<rect x="545.857" y="165.857" width="1.28572" height="1.28571" fill="white"/>
<path d="M318.286 92.5713H383.857" stroke="black" stroke-width="0.3"/>
<rect x="344.15" y="154.436" width="38.2714" height="62.7" stroke="black" stroke-width="0.3"/>
<path d="M373.521 185.786C373.521 189.86 372.373 193.546 370.518 196.212C368.663 198.879 366.105 200.521 363.286 200.521C360.466 200.521 357.909 198.879 356.054 196.212C354.199 193.546 353.05 189.86 353.05 185.786C353.05 181.712 354.199 178.026 356.054 175.359C357.909 172.693 360.466 171.05 363.286 171.05C366.105 171.05 368.663 172.693 370.518 175.359C372.373 178.026 373.521 181.712 373.521 185.786Z" stroke="black" stroke-width="0.1"/>
<rect x="61.2929" y="59.2926" width="112.843" height="43.4143" stroke="black" stroke-width="0.3"/>
<rect x="7.29288" y="149.293" width="120.557" height="81.9857" stroke="black" stroke-width="0.3"/>
<rect x="549.864" y="54.15" width="33.1286" height="54.9857" stroke="black" stroke-width="0.3"/>
<path d="M389 84.8574H430.143" stroke="black" stroke-width="0.3"/>
<rect x="670.721" y="226.436" width="94.8429" height="39.5571" rx="15.35" stroke="black" stroke-width="0.3"/>
<rect x="363.436" y="104.293" width="18.9857" height="33.1286" stroke="black" stroke-width="0.3"/>
<path d="M358.786 110.621C362.86 110.621 366.546 111.77 369.212 113.625C371.879 115.48 373.521 118.037 373.521 120.857C373.521 123.676 371.879 126.234 369.212 128.089C366.546 129.944 362.86 131.093 358.786 131.093C354.712 131.093 351.026 129.944 348.359 128.089C345.693 126.234 344.05 123.676 344.05 120.857C344.05 118.037 345.693 115.48 348.359 113.625C351.026 111.77 354.712 110.621 358.786 110.621Z" fill="#FBF6EB" stroke="black" stroke-width="0.1"/>
<circle cx="674.429" cy="102.858" r="38.4214" stroke="black" stroke-width="0.3"/>
<path d="M46.3571 149.387V231.431M64.3571 149.387V231.431" stroke="black" stroke-width="0.3"/>
<rect x="14.9071" y="156.907" width="21.7571" height="28.1857" stroke="black" stroke-width="0.1"/>
<rect x="14.9071" y="195.479" width="21.7571" height="28.1857" stroke="black" stroke-width="0.1"/>
<rect x="8.57859" y="240.579" width="27.9857" height="36.9857" stroke="black" stroke-width="0.3"/>
<rect x="756.099" y="59.3546" width="60.1286" height="13.8429" transform="rotate(43.0994 756.099 59.3546)" stroke="black" stroke-width="0.3"/>
</svg>
